<?xml version="1.0" standalone="no"?>
<!DOCTYPE svg PUBLIC "-//W3C//DTD SVG 20010904//EN"
 "http://www.w3.org/TR/2001/REC-SVG-20010904/DTD/svg10.dtd">
<svg version="1.0" xmlns="http://www.w3.org/2000/svg"
 width="300.000000pt" height="300.000000pt" viewBox="0 0 300.000000 300.000000"
 preserveAspectRatio="xMidYMid meet">
<metadata>
Created by potrace 1.10, written by Peter Selinger 2001-2011
</metadata>
<g transform="translate(0.000000,300.000000) scale(0.100000,-0.100000)"
fill="#000000" stroke="none">
<path d="M1700 2821 c-20 -11 -44 -36 -58 -62 -29 -55 -25 -101 18 -199 l31
-70 -16 -67 c-9 -36 -19 -71 -24 -77 -10 -13 -34 -94 -34 -116 0 -8 -4 -21
-10 -28 -6 -8 -14 -35 -18 -60 -12 -81 -43 -167 -72 -202 -23 -27 -30 -31 -38
-19 -5 8 -9 22 -9 32 0 9 -6 17 -13 17 -7 0 -29 14 -50 31 -46 38 -93 47 -135
25 -87 -45 -107 -159 -36 -215 22 -18 23 -18 4 -48 -10 -17 -35 -39 -57 -49
-37 -18 -90 -94 -151 -214 -9 -19 -39 -64 -66 -100 -27 -36 -64 -96 -82 -134
-54 -112 -119 -167 -217 -181 -71 -11 -46 -29 32 -22 58 4 63 3 46 -9 -10 -8
-25 -14 -32 -14 -7 0 -13 -5 -13 -11 0 -11 31 -9 90 7 21 6 23 4 13 -7 -17
-17 -16 -29 1 -29 8 0 24 14 36 31 21 28 23 29 40 14 21 -19 71 -25 77 -9 2 6
-7 15 -20 21 -19 9 -23 18 -21 51 2 38 22 92 47 122 7 8 34 32 61 53 48 36
106 110 106 134 0 7 10 18 23 24 12 7 27 19 33 28 19 25 39 1 88 -111 36 -82
32 -103 -28 -133 -17 -9 -22 -21 -24 -70 -3 -64 -28 -105 -64 -105 -10 0 -21
-6 -24 -14 -3 -7 -33 -36 -67 -64 -35 -28 -81 -75 -102 -106 -26 -36 -47 -55
-61 -56 -12 0 -32 -10 -46 -22 -13 -13 -51 -36 -84 -52 -32 -15 -89 -48 -126
-71 -78 -51 -216 -179 -229 -213 -7 -17 -14 -22 -28 -17 -14 4 -23 0 -31 -15
-14 -26 -26 -19 -34 22 -4 22 -9 29 -17 21 -7 -7 -8 -22 -1 -46 9 -31 8 -36
-9 -40 -10 -3 -19 -12 -19 -20 0 -15 -58 -36 -139 -51 -46 -8 -81 -32 -81 -54
0 -10 15 -35 34 -55 28 -31 40 -37 74 -37 23 0 44 5 47 10 3 6 30 10 60 10 50
0 56 3 82 35 15 19 33 35 40 35 7 0 18 10 24 23 22 42 104 97 145 97 8 0 43
22 77 49 35 28 97 69 138 92 41 23 106 63 145 90 38 26 168 97 287 158 l217
110 52 -24 c29 -14 59 -25 66 -25 7 0 73 -24 145 -54 73 -30 161 -60 197 -67
86 -16 138 -43 259 -134 54 -41 104 -75 111 -75 6 0 41 -23 77 -50 36 -28 74
-50 85 -50 26 0 134 -114 164 -172 13 -27 29 -48 34 -48 5 0 24 13 42 29 18
16 60 46 94 67 69 44 184 145 184 162 0 24 -52 26 -94 4 -31 -17 -58 -22 -113
-22 -40 0 -73 4 -73 9 0 10 52 57 72 64 7 2 10 8 6 12 -8 8 -27 0 -85 -35 -30
-18 -35 -18 -68 -4 -29 12 -35 19 -30 34 4 11 2 20 -3 20 -5 0 -66 47 -136
104 -134 110 -304 228 -346 241 -14 4 -51 32 -84 61 -32 29 -98 73 -145 98
-82 42 -86 46 -86 77 0 27 -7 37 -32 54 -47 30 -57 60 -43 132 7 33 10 106 8
164 -3 90 -7 112 -31 160 -37 74 -45 151 -22 204 9 22 21 69 26 105 5 36 13
83 18 105 6 22 18 70 27 108 9 37 20 67 24 67 13 0 32 180 34 313 0 35 2 37
32 37 40 0 92 36 115 80 71 132 -77 273 -211 201z m130 -36 c32 -17 60 -61 60
-95 0 -47 -54 -110 -94 -110 -8 0 -28 -11 -45 -26 l-30 -25 -27 52 c-31 63
-36 133 -11 169 34 49 93 63 147 35z m-139 -584 c-29 -79 -60 -206 -67 -271
-3 -30 -15 -79 -25 -108 -29 -81 -23 -142 24 -242 26 -54 35 -213 18 -304 -13
-68 -1 -104 48 -150 17 -17 31 -39 31 -51 0 -28 41 -65 116 -104 34 -18 90
-56 125 -85 35 -29 84 -63 109 -76 108 -54 403 -280 445 -341 11 -16 40 -38
65 -50 25 -11 57 -27 72 -35 16 -8 55 -14 99 -14 86 0 86 0 -36 -85 l-80 -55
-30 37 c-68 84 -122 136 -165 158 -57 29 -158 95 -280 184 -123 88 -160 107
-266 131 -48 11 -122 36 -164 55 -99 43 -280 105 -308 105 -30 0 -418 -200
-522 -269 -47 -31 -110 -70 -140 -86 -30 -16 -87 -53 -126 -82 -39 -29 -76
-53 -83 -53 -30 0 -102 -49 -171 -115 -68 -66 -80 -73 -125 -78 -27 -4 -62 -9
-77 -13 -19 -4 -32 0 -47 15 -27 27 -20 38 27 47 70 13 113 34 165 79 28 25
58 45 65 45 7 0 56 42 107 94 98 97 178 156 303 222 41 22 87 46 103 55 17 10
71 59 122 111 51 52 118 114 150 137 61 44 87 86 87 139 0 18 10 38 26 53 53
50 58 71 30 150 -31 89 -69 147 -101 155 -37 9 -87 -28 -131 -97 -39 -61 -144
-153 -144 -126 0 8 26 50 58 95 31 45 83 126 115 181 43 75 68 107 100 128 23
16 51 45 61 64 l20 36 -33 51 c-38 60 -36 99 6 132 49 39 99 22 190 -63 l33
-31 27 20 c54 40 90 117 114 239 13 68 40 158 57 190 l17 30 3 -49 c2 -31 -4
-69 -17 -105z m-817 -1078 c-8 -40 -74 -74 -74 -39 0 14 69 80 76 73 2 -2 1
-18 -2 -34z"/>
</g>
</svg>
